<svg width="1500" height="297" viewBox="0 0 1500 297" fill="none" xmlns="http://www.w3.org/2000/svg">
<rect x="3.52313" y="60" width="41" height="237" fill="#C4C4C4" fill-opacity="0.1"/>
<rect x="50.5231" width="41" height="297" fill="#C4C4C4" fill-opacity="0.1"/>
<rect x="97.5231" y="13.4634" width="34.2906" height="291.052" transform="rotate(-13.0487 97.5231 13.4634)" fill="#C4C4C4" fill-opacity="0.1"/>
<rect x="202.642" width="41" height="297" fill="#C4C4C4" fill-opacity="0.1"/>
<rect x="249.642" y="27" width="47" height="270" fill="#C4C4C4" fill-opacity="0.1"/>
<rect x="302.642" y="60" width="75" height="237" fill="#C4C4C4" fill-opacity="0.1"/>
<rect x="383.642" y="14" width="41" height="283" fill="#C4C4C4" fill-opacity="0.1"/>
<rect x="430.642" y="27" width="71" height="270" fill="#C4C4C4" fill-opacity="0.1"/>
<rect x="507.642" y="106" width="41" height="191" fill="#C4C4C4" fill-opacity="0.1"/>
<rect x="554.642" y="106" width="62" height="191" fill="#C4C4C4" fill-opacity="0.1"/>
<rect x="827.642" y="155" width="41" height="175" transform="rotate(90 827.642 155)" fill="#C4C4C4" fill-opacity="0.1"/>
<rect x="842.642" y="202" width="41" height="205" transform="rotate(90 842.642 202)" fill="#C4C4C4" fill-opacity="0.1"/>
<rect x="857.642" y="249" width="48" height="235" transform="rotate(90 857.642 249)" fill="#C4C4C4" fill-opacity="0.1"/>
<rect width="60" height="297" transform="matrix(-1 0 0 1 923.642 0)" fill="#C4C4C4" fill-opacity="0.1"/>
<rect width="47" height="270" transform="matrix(-1 0 0 1 976.642 27)" fill="#C4C4C4" fill-opacity="0.1"/>
<rect width="41" height="237" transform="matrix(-0.95944 -0.281912 -0.281912 0.95944 1088.79 69.6127)" fill="#C4C4C4" fill-opacity="0.1"/>
<rect width="41" height="237" transform="matrix(-1 0 0 1 1135.79 60)" fill="#C4C4C4" fill-opacity="0.1"/>
<rect width="71" height="270" transform="matrix(-1 0 0 1 1212.79 27)" fill="#C4C4C4" fill-opacity="0.1"/>
<rect width="41" height="283" transform="matrix(-1 0 0 1 1259.79 14)" fill="#C4C4C4" fill-opacity="0.1"/>
<rect width="41" height="297" transform="matrix(-1 0 0 1 1306.79 0)" fill="#C4C4C4" fill-opacity="0.1"/>
<rect width="34.2906" height="291.052" transform="matrix(-0.971171 0.238385 0.238385 0.971171 1346.09 6.16431)" fill="#C4C4C4" fill-opacity="0.1"/>
<rect width="75" height="237" transform="matrix(-1 0 0 1 1496.48 60)" fill="#C4C4C4" fill-opacity="0.1"/>
</svg>
